<svg width="48" height="48" viewBox="0 0 48 48" fill="none" xmlns="http://www.w3.org/2000/svg">
<g clip-path="url(#clip0_94_4678)">
<path d="M40.0811 12.242H32.7411L29.2771 6.242H18.8851L15.4211 12.242H8.08106C5.88106 12.242 4.08105 14.042 4.08105 16.242V34.242C4.08105 36.442 5.88106 38.242 8.08106 38.242H40.0811C42.2811 38.242 44.0811 36.442 44.0811 34.242V16.242C44.0811 14.042 42.2811 12.242 40.0811 12.242ZM42.0811 34.242C42.0811 35.345 41.1841 36.242 40.0811 36.242H8.08106C6.97806 36.242 6.08105 35.345 6.08105 34.242V16.242C6.08105 15.139 6.97806 14.242 8.08106 14.242H15.4211H16.5761L17.1531 13.242L20.0401 8.242H28.1231L31.0101 13.242L31.5871 14.242H32.7421H40.0821C41.1851 14.242 42.0821 15.139 42.0821 16.242V34.242H42.0811Z" fill="black"/>
<path d="M24.0811 18.242C20.7671 18.242 18.0811 20.928 18.0811 24.242C18.0811 27.556 20.7671 30.242 24.0811 30.242C27.3951 30.242 30.0811 27.556 30.0811 24.242C30.0811 20.928 27.3951 18.242 24.0811 18.242ZM24.0811 28.242C21.8751 28.242 20.0811 26.448 20.0811 24.242C20.0811 22.036 21.8751 20.242 24.0811 20.242C26.2871 20.242 28.0811 22.036 28.0811 24.242C28.0811 26.448 26.2871 28.242 24.0811 28.242Z" fill="black"/>
</g>
<defs>
<clipPath id="clip0_94_4678">
<rect width="48" height="48" fill="white"/>
</clipPath>
</defs>
</svg>
