<svg width="27" height="27" viewBox="0 0 27 27" fill="none" xmlns="http://www.w3.org/2000/svg">
<path d="M9.99984 19.3333C12.0958 19.3333 14.0238 18.634 15.5818 17.4673L24.6665 26.5527L26.5518 24.6667L17.4672 15.582C18.6338 14.024 19.3332 12.096 19.3332 10C19.3332 4.84534 15.1545 0.666672 9.99984 0.666672C4.84517 0.666672 0.666504 4.84534 0.666504 10C0.666504 15.1547 4.84517 19.3333 9.99984 19.3333ZM9.99984 3.33334C13.6758 3.33334 16.6665 6.32401 16.6665 10C16.6665 13.676 13.6758 16.6667 9.99984 16.6667C6.32384 16.6667 3.33317 13.676 3.33317 10C3.33317 6.32401 6.32384 3.33334 9.99984 3.33334Z" fill="black"/>
</svg>
