<svg width="48" height="48" viewBox="0 0 48 48" fill="none" xmlns="http://www.w3.org/2000/svg">
<path d="M17.9368 42.491H17.7958C12.2208 42.461 7.63083 40.624 5.20283 37.452C5.1156 37.3366 5.03384 37.2171 4.95783 37.094L4.85683 36.94C4.75411 36.7898 4.69429 36.6144 4.68379 36.4327C4.6733 36.251 4.71254 36.0699 4.79728 35.9089C4.88202 35.7478 5.00906 35.6129 5.16474 35.5187C5.32042 35.4244 5.49885 35.3744 5.68083 35.374C8.21483 35.374 12.3768 34.252 16.2588 31.166C4.12583 23.96 4.90083 13.96 7.10483 9.553C7.24883 9.266 7.52183 9.065 7.83883 9.013C7.9952 8.98734 8.15543 8.99936 8.30622 9.04805C8.45701 9.09675 8.59401 9.18073 8.70583 9.293C14.2638 14.851 21.0538 16.406 23.0218 16.345C23.3598 11.688 27.2578 8 31.9998 8C33.8598 8 35.6328 8.562 37.1518 9.63L42.6318 8.972C42.8082 8.95035 42.9872 8.9763 43.1502 9.04716C43.3133 9.11803 43.4543 9.23122 43.5588 9.375C43.7718 9.667 43.8108 10.051 43.6618 10.38L40.9998 16.217V17C40.9998 26.534 38.1768 33.53 32.6078 37.794C28.7048 40.783 23.3638 42.491 17.9368 42.491ZM7.67683 37.205C9.88783 39.26 13.5598 40.468 17.8078 40.491H17.9318C22.8588 40.491 27.8818 38.893 31.3918 36.206C36.4398 32.341 38.9998 25.879 38.9998 17V16C38.9995 15.8568 39.0302 15.7152 39.0898 15.585L41.1038 11.17L36.9988 11.663C36.7385 11.6952 36.476 11.6229 36.2688 11.462C35.0486 10.5125 33.546 9.99789 31.9998 10C28.1408 10 24.9998 13.141 24.9998 17C24.9998 17.501 24.6938 17.927 24.1818 18.139C22.2548 18.94 14.5678 17.261 8.37283 11.728C6.92983 16.148 7.53883 24.231 18.4738 30.119C18.6146 30.195 18.7351 30.3037 18.8253 30.4358C18.9155 30.568 18.9727 30.7198 18.9922 30.8786C19.0117 31.0374 18.9929 31.1986 18.9373 31.3486C18.8817 31.4986 18.791 31.6332 18.6728 31.741C14.9548 35.108 10.7868 36.716 7.67683 37.205Z" fill="white"/>
</svg>
