<svg width="48" height="48" viewBox="0 0 48 48" fill="none" xmlns="http://www.w3.org/2000/svg">
<path d="M23.9999 37.519C23.5379 37.519 12.6579 37.51 9.77691 36.738C8.8501 36.4889 8.00501 36.0007 7.32633 35.3222C6.64764 34.6437 6.15919 33.7987 5.90991 32.872C5.13791 29.99 5.12891 24.253 5.12891 24.01C5.12891 23.767 5.13791 18.03 5.90991 15.149C6.15921 14.222 6.64778 13.3768 7.32665 12.6981C8.00552 12.0194 8.85084 11.531 9.77791 11.282C12.6579 10.51 23.5379 10.501 23.9999 10.501C24.4619 10.501 35.3419 10.51 38.2239 11.282C39.1507 11.5313 39.9958 12.0197 40.6745 12.6984C41.3531 13.3771 41.8416 14.2221 42.0909 15.149C42.8619 18.03 42.8709 23.767 42.8709 24.01C42.8709 24.253 42.8619 29.99 42.0909 32.872C41.8414 33.7986 41.3529 34.6435 40.6743 35.322C39.9956 36.0005 39.1506 36.4888 38.2239 36.738C35.3419 37.51 24.4619 37.519 23.9999 37.519ZM23.9999 12.499C20.9279 12.499 12.4769 12.627 10.2949 13.212C9.70705 13.37 9.17103 13.6796 8.74052 14.11C8.31001 14.5403 8.00012 15.0762 7.84191 15.664C7.13791 18.292 7.12891 23.952 7.12891 24.009C7.12891 24.066 7.13791 29.726 7.84191 32.354C8.00013 32.9416 8.30989 33.4774 8.7402 33.9077C9.17051 34.338 9.70628 34.6478 10.2939 34.806C12.4779 35.391 20.9279 35.519 23.9999 35.519C27.0719 35.519 35.5229 35.391 37.7059 34.806C38.2938 34.648 38.8298 34.3383 39.2603 33.908C39.6908 33.4777 40.0007 32.9418 40.1589 32.354C40.8619 29.726 40.8709 24.066 40.8709 24.009C40.8709 23.952 40.8619 18.292 40.1589 15.665V15.664C40.0007 15.0762 39.6908 14.5403 39.2603 14.11C38.8298 13.6796 38.2938 13.37 37.7059 13.212C35.5229 12.627 27.0719 12.499 23.9999 12.499Z" fill="white"/>
<path d="M20.8872 29.9859C20.622 29.9859 20.3676 29.8806 20.1801 29.6931C19.9926 29.5055 19.8872 29.2512 19.8872 28.9859V19.0329C19.8866 18.8572 19.9324 18.6844 20.0201 18.532C20.1077 18.3796 20.234 18.2531 20.3862 18.1652C20.5384 18.0773 20.7112 18.0312 20.887 18.0315C21.0627 18.0318 21.2353 18.0785 21.3872 18.1669L30.0062 23.1439C30.1582 23.2317 30.2844 23.3579 30.3722 23.51C30.46 23.662 30.5062 23.8344 30.5062 24.0099C30.5062 24.1855 30.46 24.3579 30.3722 24.5099C30.2844 24.6619 30.1582 24.7882 30.0062 24.8759L21.3872 29.8529C21.2349 29.9399 21.0626 29.9857 20.8872 29.9859ZM21.8872 20.7649V27.2529L27.5062 24.0089L21.8872 20.7649Z" fill="white"/>
</svg>
